<svg width="18" height="18" viewBox="0 0 18 18" fill="none" xmlns="http://www.w3.org/2000/svg">
<path id="Vector" d="M0 0.642719C0 0.47226 0.067715 0.308781 0.188248 0.188248C0.308782 0.0677147 0.47226 0 0.642719 0H1.20574C2.14026 0 2.67757 0.608012 2.98865 1.21474C3.20074 1.62994 3.35371 2.1364 3.48097 2.57602H16.7146C16.9132 2.57608 17.1091 2.62216 17.2869 2.71066C17.4647 2.79916 17.6196 2.92766 17.7394 3.08607C17.8592 3.24449 17.9407 3.42852 17.9774 3.62372C18.0142 3.81891 18.0052 4.01996 17.9512 4.2111L16.0281 10.9918C15.8752 11.5298 15.5509 12.0032 15.1046 12.3402C14.6583 12.6773 14.1142 12.8596 13.555 12.8595H7.02621C6.46226 12.8597 5.91388 12.6745 5.46558 12.3323C5.01728 11.9902 4.69391 11.5101 4.54531 10.9661L3.72006 7.93887L3.70721 7.89774L2.3832 3.40127L2.25466 2.96808C2.12612 2.52332 2.013 2.12997 1.84332 1.79961C1.63893 1.40113 1.45126 1.28544 1.20574 1.28544H0.642719C0.47226 1.28544 0.308782 1.21772 0.188248 1.09719C0.067715 0.976657 0 0.813179 0 0.642719ZM4.94637 7.55067L5.78576 10.6306C5.86018 10.9025 6.02191 11.1424 6.24605 11.3133C6.47019 11.4843 6.74432 11.5768 7.02621 11.5767H13.5562C13.8357 11.5764 14.1075 11.485 14.3305 11.3164C14.5534 11.1477 14.7152 10.911 14.7915 10.6421L16.7146 3.86146H3.86017L4.94637 7.55067ZM9.00193 16.0718C9.00193 16.5832 8.79878 17.0737 8.43718 17.4353C8.07558 17.7969 7.58515 18 7.07377 18C6.56239 18 6.07196 17.7969 5.71036 17.4353C5.34876 17.0737 5.14561 16.5832 5.14561 16.0718C5.14561 15.5605 5.34876 15.07 5.71036 14.7084C6.07196 14.3468 6.56239 14.1437 7.07377 14.1437C7.58515 14.1437 8.07558 14.3468 8.43718 14.7084C8.79878 15.07 9.00193 15.5605 9.00193 16.0718ZM7.71649 16.0718C7.71649 15.9014 7.64878 15.7379 7.52824 15.6174C7.40771 15.4968 7.24423 15.4291 7.07377 15.4291C6.90331 15.4291 6.73983 15.4968 6.6193 15.6174C6.49877 15.7379 6.43105 15.9014 6.43105 16.0718C6.43105 16.2423 6.49877 16.4058 6.6193 16.5263C6.73983 16.6468 6.90331 16.7146 7.07377 16.7146C7.24423 16.7146 7.40771 16.6468 7.52824 16.5263C7.64878 16.4058 7.71649 16.2423 7.71649 16.0718ZM15.4291 16.0718C15.4291 16.5832 15.226 17.0737 14.8644 17.4353C14.5028 17.7969 14.0123 18 13.501 18C12.9896 18 12.4992 17.7969 12.1376 17.4353C11.776 17.0737 11.5728 16.5832 11.5728 16.0718C11.5728 15.5605 11.776 15.07 12.1376 14.7084C12.4992 14.3468 12.9896 14.1437 13.501 14.1437C14.0123 14.1437 14.5028 14.3468 14.8644 14.7084C15.226 15.07 15.4291 15.5605 15.4291 16.0718ZM14.1437 16.0718C14.1437 15.9014 14.076 15.7379 13.9554 15.6174C13.8349 15.4968 13.6714 15.4291 13.501 15.4291C13.3305 15.4291 13.167 15.4968 13.0465 15.6174C12.926 15.7379 12.8582 15.9014 12.8582 16.0718C12.8582 16.2423 12.926 16.4058 13.0465 16.5263C13.167 16.6468 13.3305 16.7146 13.501 16.7146C13.6714 16.7146 13.8349 16.6468 13.9554 16.5263C14.076 16.4058 14.1437 16.2423 14.1437 16.0718Z" fill="white"/>
</svg>
