<svg width="20" height="20" viewBox="0 0 20 20" fill="none" xmlns="http://www.w3.org/2000/svg">
<path d="M6.85746 10.5061C4.36901 8.6456 2.59564 6.59915 1.62734 5.44867C1.3276 5.09253 1.22938 4.8319 1.17033 4.3728C0.968111 2.8008 0.867011 2.0148 1.32795 1.5074C1.7889 1 2.60404 1 4.23433 1H15.7657C17.396 1 18.2111 1 18.672 1.5074C19.133 2.0148 19.0319 2.8008 18.8297 4.37281C18.7706 4.83191 18.6724 5.09254 18.3726 5.44867C17.403 6.60062 15.6261 8.6507 13.1326 10.5135C12.907 10.6821 12.7583 10.9567 12.7307 11.2614C12.4837 13.992 12.2559 15.4876 12.1141 16.2442C11.8853 17.4657 10.1532 18.2006 9.226 18.8563C8.6741 19.2466 8.0043 18.782 7.93278 18.1778C7.79643 17.0261 7.53961 14.6864 7.25927 11.2614C7.23409 10.9539 7.08486 10.6761 6.85746 10.5061Z" stroke="black" stroke-linecap="round" stroke-linejoin="round"/>
</svg>
