<svg width="12" height="18" viewBox="0 0 12 18" fill="none" xmlns="http://www.w3.org/2000/svg">
<path id="Vector" d="M9.66538 4.28571H11.4112C11.6516 4.28571 11.8476 4.09319 11.8476 3.85714V0.428571C11.8476 0.192514 11.6515 0 11.4112 0H8.79248C6.14565 0 3.99157 2.11524 3.99157 4.71429V6.89143H0.936447C0.696052 6.89143 0.5 7.08395 0.5 7.32V10.7143C0.5 10.9503 0.696061 11.1429 0.936447 11.1429H3.68802V17.5714C3.68802 17.8075 3.88408 18 4.12447 18H7.76858C8.00897 18 8.20503 17.8075 8.20503 17.5714V11.1429H10.5007C10.6994 11.1429 10.8741 11.0123 10.9244 10.8214L11.8348 7.39286C11.8698 7.26395 11.8416 7.12751 11.7581 7.02204C11.6754 6.9174 11.5484 6.85463 11.4137 6.85463H8.35858V5.56891C8.35858 4.85993 8.9459 4.2832 9.66792 4.2832L9.66538 4.28571ZM7.91959 7.71429H10.846L10.1632 10.2857H7.76708C7.52668 10.2857 7.33063 10.4782 7.33063 10.7143V17.1429H4.55941V10.7143C4.55941 10.4782 4.36335 10.2857 4.12296 10.2857H1.37139V7.74857H4.42651C4.66691 7.74857 4.86296 7.55605 4.86296 7.32V4.71429C4.86296 2.58816 6.62409 0.857143 8.79098 0.857143H10.9732V3.42857H9.66387C8.46109 3.42857 7.48164 4.39035 7.48164 5.57143V7.28571C7.48164 7.52177 7.6777 7.71429 7.91809 7.71429H7.91959Z" fill="black"/>
</svg>
