<svg width="50" height="45" viewBox="0 0 50 45" fill="none" xmlns="http://www.w3.org/2000/svg">
<g id="Group 33">
<path id="Vector" d="M9.03222 37.0156H2.5951C1.99258 37.015 1.4149 36.7754 0.988854 36.3494C0.562806 35.9233 0.3232 35.3456 0.322623 34.7431V24.0463C0.319616 23.747 0.376341 23.4502 0.489479 23.1731C0.602616 22.896 0.769892 22.6443 0.981513 22.4327C1.19313 22.2211 1.44485 22.0538 1.72192 21.9407C1.99898 21.8275 2.29584 21.7708 2.5951 21.7738H9.03222V37.0156ZM2.5951 23.2254C2.48698 23.2242 2.37971 23.2447 2.27959 23.2855C2.17947 23.3263 2.08851 23.3868 2.01205 23.4632C1.9356 23.5397 1.87517 23.6306 1.83433 23.7308C1.79349 23.8309 1.77306 23.9382 1.77422 24.0463V34.7431C1.77441 34.9608 1.86096 35.1694 2.01486 35.3233C2.16877 35.4772 2.37745 35.5638 2.5951 35.564H7.58062V23.2254H2.5951Z" fill="white"/>
<path id="Vector_2" d="M47.4053 37.0163H40.9681V21.7745H47.4096C47.6991 21.7585 47.9889 21.8011 48.2615 21.9C48.5341 21.9989 48.7839 22.1519 48.9958 22.3498C49.2077 22.5478 49.3774 22.7865 49.4946 23.0518C49.6118 23.317 49.6741 23.6032 49.6777 23.8932V34.7439C49.6772 35.3464 49.4376 35.9241 49.0115 36.3501C48.5855 36.7762 48.0078 37.0158 47.4053 37.0163ZM42.4197 35.5647H47.4053C47.6229 35.5645 47.8316 35.478 47.9855 35.3241C48.1394 35.1702 48.2259 34.9615 48.2261 34.7439V23.8932C48.2261 23.4011 47.7863 23.2261 47.4096 23.2261H42.4197V35.5647Z" fill="white"/>
<path id="Vector_3" d="M42.419 22.4998H40.9674V17.5353C40.8011 8.67258 33.6368 1.4516 24.9998 1.4516C16.3627 1.4516 9.19837 8.67258 9.03217 17.5491V22.3916H7.58057V17.5353C7.76202 7.86041 15.5767 0 24.9998 0C34.4228 0 42.2375 7.86041 42.419 17.5223V22.4998Z" fill="white"/>
<path id="Vector_4" d="M42.4183 41.3756L30.8977 41.3668L30.8992 39.9152L40.9667 39.9225V36.2986H42.4183V41.3756Z" fill="white"/>
<path id="Vector_5" d="M30.8055 45.0001H23.9997C22.7485 45.0001 21.5485 44.503 20.6638 43.6183C19.779 42.7336 19.282 41.5336 19.282 40.2824C19.282 39.0312 19.779 37.8312 20.6638 36.9465C21.5485 36.0617 22.7485 35.5647 23.9997 35.5647H30.8055V45.0001ZM23.9997 37.0163C23.1335 37.0163 22.3027 37.3604 21.6902 37.9729C21.0777 38.5854 20.7336 39.4162 20.7336 40.2824C20.7336 41.1486 21.0777 41.9794 21.6902 42.5919C22.3027 43.2044 23.1335 43.5485 23.9997 43.5485H29.3539V37.0163H23.9997Z" fill="white"/>
</g>
</svg>
