<svg width="44" height="45" viewBox="0 0 44 45" fill="none" xmlns="http://www.w3.org/2000/svg">
<g id="Group">
<g id="Group_2">
<g id="Group_3">
<g id="Group_4">
<path id="Vector" d="M22.0002 45C20.6975 45.0001 19.3954 44.5881 18.2838 43.7641L17.3175 43.0478C16.331 42.3164 15.1652 41.9298 13.9462 41.9298H12.7518C10.0051 41.9298 7.58985 40.1405 6.74176 37.4772L6.37266 36.3182C5.99515 35.1329 5.27364 34.1192 4.28594 33.3871L3.31968 32.6708C1.10051 31.0256 0.178753 28.1327 1.02597 25.4722L1.39508 24.3131C1.77278 23.127 1.77278 21.8731 1.39508 20.6869L1.02597 19.5278C0.178753 16.8673 1.10051 13.9744 3.31968 12.3292L4.28594 11.6129C5.27364 10.8808 5.99525 9.86711 6.37266 8.68178L6.74176 7.5228C7.58985 4.8595 10.0051 3.07016 12.7518 3.07016H13.9462C15.1652 3.07016 16.331 2.68358 17.3175 1.95222L18.2838 1.23592C20.5066 -0.411974 23.4936 -0.411974 25.7164 1.23592L26.6827 1.95222C27.6692 2.68358 28.8351 3.07016 30.054 3.07016H31.2484C33.9951 3.07016 36.4104 4.8595 37.2585 7.5228L37.6276 8.68178C38.0051 9.86711 38.7266 10.8808 39.7143 11.6129L40.6805 12.3292C42.8997 13.9744 43.8215 16.8673 42.9742 19.5278L42.6051 20.6869C42.2274 21.873 42.2274 23.1269 42.6051 24.3131L42.9742 25.4722C43.8214 28.1327 42.8997 31.0256 40.6805 32.6708L39.7143 33.3871C38.7266 34.1192 38.005 35.1329 37.6276 36.3182L37.2585 37.4772C36.4105 40.1405 33.9952 41.9298 31.2484 41.9298H30.054C28.8351 41.9298 27.6692 42.3164 26.6827 43.0478L25.7164 43.7641C24.6051 44.588 23.3024 44.9999 22.0002 45ZM12.7518 3.64955C10.2585 3.64955 8.06506 5.27678 7.29373 7.69862L6.92463 8.85759C6.51005 10.1596 5.7169 11.2733 4.63091 12.0784L3.66465 12.7947C1.64446 14.2923 0.805838 16.9275 1.57794 19.3521L1.94705 20.5111C2.36143 21.8123 2.36143 23.1878 1.94705 24.4889L1.57794 25.6479C0.805838 28.0725 1.64446 30.7077 3.66465 32.2053L4.63091 32.9216C5.7169 33.7268 6.51005 34.8404 6.92463 36.1424L7.29373 37.3014C8.06497 39.7233 10.2584 41.3505 12.7518 41.3505H13.9462C15.2904 41.3505 16.5755 41.7764 17.6626 42.5823L18.6289 43.2986C20.6454 44.7936 23.355 44.7936 25.3716 43.2986L26.3378 42.5823C27.425 41.7764 28.71 41.3505 30.0542 41.3505H31.2486C33.7421 41.3505 35.9355 39.7232 36.7067 37.3014L37.0758 36.1424C37.4904 34.8404 38.2835 33.7267 39.3695 32.9216L40.3358 32.2053C42.356 30.7077 43.1945 28.0724 42.4225 25.6479L42.0534 24.4889C41.6391 23.1877 41.6391 21.8122 42.0534 20.5111L42.4225 19.3521C43.1946 16.9276 42.356 14.2923 40.3358 12.7947L39.3695 12.0784C38.2835 11.2732 37.4904 10.1596 37.0758 8.85759L36.7067 7.69862C35.9355 5.27669 33.742 3.64955 31.2486 3.64955H30.0542C28.71 3.64955 27.425 3.22358 26.3378 2.41768L25.3716 1.70138C23.355 0.206422 20.6454 0.206422 18.6289 1.70138L17.6626 2.41768C16.5756 3.22358 15.2904 3.64955 13.9462 3.64955H12.7518Z" fill="white"/>
</g>
<g id="Group_5">
<path id="Vector_2" d="M22.0002 38.2374C13.3225 38.2374 6.2627 31.1776 6.2627 22.4999C6.2627 13.8222 13.3224 6.76245 22.0002 6.76245C30.6779 6.76245 37.7376 13.8222 37.7376 22.4999C37.7376 31.1776 30.6778 38.2374 22.0002 38.2374ZM22.0002 7.34174C13.6419 7.34174 6.84199 14.1417 6.84199 22.4999C6.84199 30.8582 13.6419 37.6581 22.0002 37.6581C30.3584 37.6581 37.1583 30.8582 37.1583 22.4999C37.1583 14.1417 30.3584 7.34174 22.0002 7.34174Z" fill="white"/>
</g>
<g id="Group_6">
<path id="Vector_3" d="M21.9992 33.4848C15.9425 33.4848 11.0149 28.5572 11.0149 22.5004C11.0149 16.4436 15.9424 11.5161 21.9992 11.5161C28.056 11.5161 32.9835 16.4437 32.9835 22.5005C32.9835 28.5573 28.056 33.4848 21.9992 33.4848ZM21.9992 12.0954C16.2618 12.0954 11.5942 16.7631 11.5942 22.5005C11.5942 28.2379 16.2618 32.9055 21.9992 32.9055C27.7365 32.9055 32.4042 28.2378 32.4042 22.5004C32.4042 16.763 27.7365 12.0954 21.9992 12.0954Z" fill="white"/>
</g>
<g id="Group_7">
<path id="Vector_4" d="M22.0012 12.0949C21.8412 12.0949 21.7115 11.9653 21.7115 11.8053V7.0521C21.7115 6.89212 21.8412 6.76245 22.0012 6.76245C22.1612 6.76245 22.2908 6.89212 22.2908 7.0521V11.8052C22.2908 11.9653 22.1612 12.0949 22.0012 12.0949Z" fill="white"/>
</g>
<g id="Group_8">
<path id="Vector_5" d="M22.0012 38.2379C21.8412 38.2379 21.7115 38.1083 21.7115 37.9483V33.1952C21.7115 33.0352 21.8412 32.9055 22.0012 32.9055C22.1612 32.9055 22.2908 33.0352 22.2908 33.1952V37.9483C22.2908 38.1083 22.1612 38.2379 22.0012 38.2379Z" fill="white"/>
</g>
<g id="Group_9">
<path id="Vector_6" d="M37.4483 22.7895H32.6952C32.5352 22.7895 32.4055 22.6598 32.4055 22.4999C32.4055 22.3399 32.5352 22.2102 32.6952 22.2102H37.4483C37.6083 22.2102 37.7379 22.3399 37.7379 22.4999C37.7379 22.6598 37.6083 22.7895 37.4483 22.7895Z" fill="white"/>
</g>
<g id="Group_10">
<path id="Vector_7" d="M11.3055 22.79H6.55234C6.39236 22.79 6.2627 22.6603 6.2627 22.5003C6.2627 22.3404 6.39236 22.2107 6.55234 22.2107H11.3055C11.4655 22.2107 11.5952 22.3404 11.5952 22.5003C11.5952 22.6603 11.4655 22.79 11.3055 22.79Z" fill="white"/>
</g>
<g id="Group_11">
<path id="Vector_8" d="M29.5619 15.228C29.4877 15.228 29.4136 15.1997 29.3571 15.1431C29.2439 15.03 29.2439 14.8466 29.3571 14.7335L32.7181 11.3725C32.8312 11.2593 33.0146 11.2593 33.1277 11.3725C33.2409 11.4855 33.2409 11.669 33.1277 11.782L29.7666 15.1431C29.7101 15.1997 29.6359 15.228 29.5619 15.228Z" fill="white"/>
</g>
<g id="Group_12">
<path id="Vector_9" d="M11.0768 33.7133C11.0026 33.7133 10.9285 33.685 10.872 33.6284C10.7588 33.5154 10.7588 33.3319 10.872 33.2189L14.2329 29.8578C14.346 29.7447 14.5294 29.7447 14.6425 29.8578C14.7557 29.9709 14.7557 30.1543 14.6425 30.2674L11.2815 33.6284C11.2251 33.685 11.1509 33.7133 11.0768 33.7133Z" fill="white"/>
</g>
<g id="Group_13">
<path id="Vector_10" d="M32.9229 33.7131C32.8488 33.7131 32.7746 33.6848 32.7181 33.6282L29.3571 30.2671C29.2439 30.1541 29.2439 29.9706 29.3571 29.8576C29.4701 29.7444 29.6536 29.7444 29.7666 29.8576L33.1277 33.2186C33.2409 33.3317 33.2409 33.5151 33.1277 33.6282C33.0712 33.6848 32.9971 33.7131 32.9229 33.7131Z" fill="white"/>
</g>
<g id="Group_14">
<path id="Vector_11" d="M14.4377 15.228C14.3636 15.228 14.2894 15.1997 14.2329 15.1431L10.872 11.782C10.7588 11.669 10.7588 11.4855 10.872 11.3725C10.985 11.2593 11.1685 11.2593 11.2816 11.3725L14.6426 14.7335C14.7557 14.8466 14.7557 15.03 14.6426 15.1431C14.586 15.1997 14.5119 15.228 14.4377 15.228Z" fill="white"/>
</g>
<g id="Group_15">
<path id="Vector_12" d="M25.6526 27.5695C25.6065 27.5695 25.5602 27.5585 25.5178 27.5362L21.9999 25.6867L18.4818 27.5362C18.3842 27.5874 18.266 27.579 18.1768 27.5141C18.0876 27.4493 18.0429 27.3394 18.0615 27.2308L18.7334 23.3134L15.8873 20.5392C15.8084 20.4622 15.7799 20.3472 15.814 20.2423C15.8481 20.1374 15.9387 20.061 16.0478 20.0451L19.981 19.4736L21.74 15.9095C21.7887 15.8107 21.8894 15.748 21.9997 15.748C22.1099 15.748 22.2106 15.8106 22.2594 15.9095L24.0184 19.4736L27.9517 20.0451C28.0608 20.061 28.1515 20.1374 28.1855 20.2423C28.2196 20.3472 28.1912 20.4622 28.1122 20.5392L25.266 23.3134L25.9378 27.2308C25.9564 27.3394 25.9117 27.4493 25.8225 27.5141C25.7724 27.5509 25.7127 27.5695 25.6526 27.5695ZM21.9999 25.0697C22.0461 25.0697 22.0925 25.0809 22.1347 25.1031L25.268 26.7504L24.6695 23.2614C24.6534 23.1674 24.6846 23.0716 24.7529 23.005L27.2878 20.5341L23.7846 20.0251C23.6902 20.0114 23.6087 19.9521 23.5665 19.8666L21.9999 16.6922L20.4333 19.8666C20.3911 19.9521 20.3095 20.0114 20.2152 20.0251L16.712 20.5341L19.2469 23.005C19.3151 23.0716 19.3462 23.1675 19.3302 23.2614L18.7318 26.7504L21.8651 25.1031C21.9073 25.0809 21.9535 25.0697 21.9999 25.0697Z" fill="white"/>
</g>
</g>
</g>
</g>
</svg>
