<svg width="12" height="10" viewBox="0 0 12 10" fill="none" xmlns="http://www.w3.org/2000/svg">
<path id="Vector" d="M11.4282 4.01035L8.53973 6.29512L9.46895 9.76325C9.47886 9.80007 9.47694 9.83888 9.46344 9.87464C9.44994 9.91041 9.42549 9.94147 9.39325 9.96381C9.36102 9.98615 9.32248 9.99873 9.28266 9.99991C9.24284 10.0011 9.20356 9.99082 9.16993 9.97044L6 8.05559L2.83007 9.97044C2.79644 9.99079 2.75718 10.001 2.71738 9.99982C2.67758 9.99862 2.63907 9.98604 2.60686 9.96371C2.57464 9.94137 2.5502 9.91032 2.53671 9.87458C2.52321 9.83884 2.52128 9.80005 2.53117 9.76325L3.46039 6.29512L0.571845 4.01035C0.54122 3.9861 0.518928 3.95363 0.507853 3.91716C0.496778 3.88069 0.49743 3.84189 0.509725 3.80577C0.52202 3.76966 0.545391 3.73789 0.576816 3.71459C0.60824 3.69129 0.64627 3.67752 0.685987 3.67507L4.43041 3.44655L5.81525 0.119597C5.82996 0.0843076 5.85543 0.0540435 5.88837 0.0327211C5.92131 0.0113988 5.9602 0 6 0C6.0398 0 6.07869 0.0113988 6.11163 0.0327211C6.14457 0.0540435 6.17004 0.0843076 6.18476 0.119597L7.56959 3.44655L11.314 3.67507C11.3537 3.67752 11.3918 3.69129 11.4232 3.71459C11.4546 3.73789 11.478 3.76966 11.4903 3.80577C11.5026 3.84189 11.5032 3.88069 11.4921 3.91716C11.4811 3.95363 11.4588 3.9861 11.4282 4.01035Z" fill="white"/>
</svg>
