<svg width="20" height="16" viewBox="0 0 20 16" fill="none" xmlns="http://www.w3.org/2000/svg">
<path id="Vector" d="M0.72375 0C0.720625 0 0.7175 0 0.71375 0C0.319375 0 0 0.325504 0 0.727447C0 1.12939 0.319375 1.45489 0.71375 1.45489C0.7175 1.45489 0.720625 1.45489 0.724375 1.45489H19.2762C19.2794 1.45489 19.2825 1.45489 19.2862 1.45489C19.6806 1.45489 20 1.12939 20 0.727447C20 0.325504 19.6806 0 19.2862 0C19.2825 0 19.2794 0 19.2756 0H0.72375ZM0.72375 7.27255C0.720625 7.27255 0.7175 7.27255 0.71375 7.27255C0.319375 7.27255 0 7.59806 0 8C0 8.40194 0.319375 8.72745 0.71375 8.72745C0.7175 8.72745 0.720625 8.72745 0.724375 8.72745H19.2762C19.2794 8.72745 19.2825 8.72745 19.2862 8.72745C19.6806 8.72745 20 8.40194 20 8C20 7.59806 19.6806 7.27255 19.2862 7.27255C19.2825 7.27255 19.2794 7.27255 19.2756 7.27255H0.72375ZM0.72375 14.5451C0.720625 14.5451 0.7175 14.5451 0.71375 14.5451C0.319375 14.5451 0 14.8706 0 15.2726C0 15.6745 0.319375 16 0.71375 16C0.7175 16 0.720625 16 0.724375 16H19.2762C19.2794 16 19.2825 16 19.2862 16C19.6806 16 20 15.6745 20 15.2726C20 14.8706 19.6806 14.5451 19.2862 14.5451C19.2825 14.5451 19.2794 14.5451 19.2756 14.5451H0.72375Z" fill="black"/>
</svg>
