<svg width="24" height="18" viewBox="0 0 24 18" fill="none" xmlns="http://www.w3.org/2000/svg">
<path id="Vector" d="M15.2406 7.62187L11.1141 5.24588C10.8718 5.10639 10.5971 5.03307 10.3176 5.03328C10.038 5.03348 9.7634 5.1072 9.52133 5.24705C9.27925 5.38689 9.07821 5.58793 8.93837 5.83001C8.79853 6.07209 8.72481 6.34669 8.72461 6.62625V11.376C8.72123 11.9453 9.02498 12.4718 9.51886 12.753C9.761 12.8945 10.0363 12.9692 10.3167 12.9696C10.5972 12.97 10.8727 12.896 11.1152 12.7552L15.2406 10.3792C15.483 10.2399 15.6843 10.0392 15.8243 9.79721C15.9643 9.55525 16.038 9.28066 16.038 9.00113C16.038 8.72159 15.9643 8.44699 15.8243 8.20504C15.6843 7.96308 15.483 7.76232 15.2406 7.623M14.6781 9.40275L10.5539 11.7799C10.4824 11.8218 10.401 11.8439 10.3182 11.8439C10.2353 11.8439 10.154 11.8218 10.0825 11.7799C10.0108 11.7393 9.95135 11.6802 9.91038 11.6087C9.8694 11.5373 9.84841 11.4561 9.84961 11.3737V6.62625C9.84882 6.54427 9.87 6.46357 9.91095 6.39255C9.95191 6.32152 10.0111 6.26276 10.0825 6.22237C10.1533 6.17926 10.2347 6.15645 10.3176 6.15645C10.4005 6.15645 10.4819 6.17926 10.5527 6.22237L14.6781 8.5995C14.7493 8.63968 14.8085 8.69804 14.8496 8.76861C14.8908 8.83917 14.9125 8.91942 14.9125 9.00113C14.9125 9.08283 14.8908 9.16308 14.8496 9.23364C14.8085 9.30421 14.7493 9.36257 14.6781 9.40275ZM19.9746 0H4.22461C3.32978 0.000893492 2.47185 0.35676 1.83911 0.989501C1.20637 1.62224 0.850503 2.48017 0.849609 3.375V14.625C0.850503 15.5198 1.20637 16.3778 1.83911 17.0105C2.47185 17.6432 3.32978 17.9991 4.22461 18H19.9746C20.8694 17.9991 21.7274 17.6432 22.3601 17.0105C22.9928 16.3778 23.3487 15.5198 23.3496 14.625V3.375C23.3487 2.48017 22.9928 1.62224 22.3601 0.989501C21.7274 0.35676 20.8694 0.000893492 19.9746 0ZM22.2246 14.625C22.2237 15.2215 21.9864 15.7932 21.5646 16.215C21.1429 16.6368 20.5711 16.8741 19.9746 16.875H4.22461C3.62815 16.8741 3.05637 16.6368 2.6346 16.215C2.21284 15.7932 1.9755 15.2215 1.97461 14.625V3.375C1.9755 2.77854 2.21284 2.20676 2.6346 1.785C3.05637 1.36323 3.62815 1.12589 4.22461 1.125H19.9746C20.5711 1.12589 21.1429 1.36323 21.5646 1.785C21.9864 2.20676 22.2237 2.77854 22.2246 3.375V14.625Z" fill="black"/>
</svg>
