<svg width="14" height="14" viewBox="0 0 14 14" fill="none" xmlns="http://www.w3.org/2000/svg">
<rect width="14" height="14" fill="#717171"/>
<path d="M-22364 -491C-22364 -492.105 -22363.1 -493 -22362 -493H66770C66771.1 -493 66772 -492.105 66772 -491V11599C66772 11600.1 66771.1 11601 66770 11601H-22362C-22363.1 11601 -22364 11600.1 -22364 11599V-491Z" fill="#444444"/>
<path d="M-22362 -492H66770V-494H-22362V-492ZM66771 -491V11599H66773V-491H66771ZM66770 11600H-22362V11602H66770V11600ZM-22363 11599V-491H-22365V11599H-22363ZM-22362 11600C-22362.6 11600 -22363 11599.6 -22363 11599H-22365C-22365 11600.7 -22363.7 11602 -22362 11602V11600ZM66771 11599C66771 11599.6 66770.6 11600 66770 11600V11602C66771.7 11602 66773 11600.7 66773 11599H66771ZM66770 -492C66770.6 -492 66771 -491.554 66771 -491H66773C66773 -492.655 66771.7 -494 66770 -494V-492ZM-22362 -494C-22363.7 -494 -22365 -492.657 -22365 -491H-22363C-22363 -491.552 -22362.6 -492 -22362 -492V-494Z" fill="white" fill-opacity="0.1"/>
<g clip-path="url(#clip0_1_2)">
<rect width="1440" height="4028" transform="translate(-1234 -393)" fill="white"/>
<path d="M9.27034 0.311472L0.172034 8.98636C0.0768419 9.07712 0.0732658 9.22723 0.164028 9.32242L4.3194 13.6806C4.41016 13.7758 4.56027 13.7794 4.65546 13.6886L13.7538 5.01374C13.849 4.92297 13.8525 4.77287 13.7618 4.67767L9.6064 0.319478C9.51564 0.224286 9.36553 0.22071 9.27034 0.311472ZM13.2537 4.8337L12.2169 5.82224L10.9254 4.46776C10.8652 4.40456 10.7645 4.40228 10.7014 4.46242C10.6383 4.52256 10.6358 4.62327 10.6961 4.68646L11.9875 6.04094L10.8658 7.1104L8.53556 4.66637C8.41527 4.54022 8.21375 4.5353 8.08748 4.6557C7.96132 4.77599 7.95651 4.97762 8.0768 5.10378L10.4071 7.54781L9.07096 8.82176L7.87028 7.56247C7.81013 7.49939 7.70931 7.49699 7.64624 7.55714C7.58189 7.61848 7.58075 7.7181 7.6409 7.78118L8.84158 9.04047L7.7291 10.1012L5.3988 7.65715C5.27852 7.53099 5.07803 7.52509 4.95072 7.64647C4.82456 7.76676 4.81976 7.9684 4.94005 8.09456L7.27034 10.5386L5.93306 11.8136L4.73238 10.5543C4.67223 10.4913 4.57141 10.4889 4.50833 10.549C4.44411 10.6102 4.44285 10.71 4.503 10.773L5.70368 12.0323L4.49944 13.1805L0.672124 9.1664L9.42636 0.819569L13.2537 4.8337Z" fill="#1D1D1D"/>
</g>
<defs>
<clipPath id="clip0_1_2">
<rect width="1440" height="4028" fill="white" transform="translate(-1234 -393)"/>
</clipPath>
</defs>
</svg>
