<svg xmlns="http://www.w3.org/2000/svg" width="196" height="48" fill="none"><path fill="#000" d="M15.677 38.72a18.74 18.74 0 0 1-4.48-.56c-1.52-.347-2.787-.813-3.8-1.4l.2-5.44h.4l1.24 2.6c.373.747.773 1.413 1.2 2 .427.56 1.013 1 1.76 1.32a6.65 6.65 0 0 0 1.52.56c.506.08 1.066.12 1.68.12 1.626 0 2.906-.44 3.84-1.32.96-.88 1.44-2.013 1.44-3.4 0-1.307-.32-2.32-.96-3.04-.64-.747-1.667-1.467-3.08-2.16l-1.64-.72c-2.293-1.013-4.094-2.173-5.4-3.48-1.28-1.333-1.92-3.093-1.92-5.28 0-1.573.4-2.933 1.2-4.08.827-1.147 1.96-2.027 3.4-2.64 1.466-.613 3.173-.92 5.12-.92 1.413 0 2.747.187 4 .56 1.28.373 2.387.88 3.32 1.52l-.24 4.8h-.4l-1.64-3c-.454-.933-.907-1.587-1.36-1.96-.454-.4-.974-.68-1.56-.84a4.753 4.753 0 0 0-.96-.2 6.452 6.452 0 0 0-1.12-.08c-1.36 0-2.507.4-3.44 1.2-.934.773-1.4 1.827-1.4 3.16 0 1.36.36 2.453 1.08 3.28.72.8 1.773 1.52 3.16 2.16l1.84.8c2.56 1.12 4.4 2.32 5.52 3.6 1.12 1.253 1.68 2.88 1.68 4.88 0 2.347-.893 4.267-2.68 5.76-1.76 1.467-4.267 2.2-7.52 2.2Zm24.38 0c-1.627 0-3.2-.293-4.72-.88a12.336 12.336 0 0 1-4.04-2.6c-1.174-1.173-2.107-2.627-2.8-4.36-.694-1.733-1.04-3.76-1.04-6.08 0-2.293.346-4.307 1.04-6.04.693-1.733 1.64-3.173 2.84-4.32 1.2-1.173 2.546-2.053 4.04-2.64 1.52-.613 3.08-.92 4.68-.92 1.626 0 3.186.293 4.68.88a11.08 11.08 0 0 1 4.04 2.6c1.2 1.147 2.146 2.6 2.84 4.36.693 1.733 1.04 3.76 1.04 6.08 0 2.267-.347 4.28-1.04 6.04-.694 1.733-1.64 3.187-2.84 4.36a12.324 12.324 0 0 1-4.04 2.64c-1.494.587-3.054.88-4.68.88Zm0-.84c1.466 0 2.653-.387 3.56-1.16.906-.8 1.56-2.147 1.96-4.04.426-1.92.64-4.547.64-7.88 0-3.36-.214-5.987-.64-7.88-.4-1.92-1.054-3.267-1.96-4.04-.907-.8-2.094-1.2-3.56-1.2-1.44 0-2.614.4-3.52 1.2-.907.773-1.574 2.12-2 4.04-.4 1.893-.6 4.52-.6 7.88 0 3.333.2 5.96.6 7.88.426 1.893 1.093 3.24 2 4.04.906.773 2.08 1.16 3.52 1.16ZM35.176 9.2c-.72 0-1.374-.227-1.96-.68-.56-.48-.84-1.133-.84-1.96s.28-1.467.84-1.92c.586-.48 1.24-.72 1.96-.72.773 0 1.426.24 1.96.72.56.453.84 1.093.84 1.92s-.28 1.48-.84 1.96c-.534.453-1.187.68-1.96.68Zm9.72 0c-.72 0-1.36-.227-1.92-.68-.56-.48-.84-1.133-.84-1.96s.28-1.467.84-1.92c.56-.48 1.2-.72 1.92-.72.773 0 1.426.24 1.96.72.56.453.84 1.093.84 1.92s-.28 1.48-.84 1.96c-.534.453-1.187.68-1.96.68ZM58.667 38v-.4l1.64-.4c1.093-.24 1.64-.907 1.64-2V12.4h-3.4c-.986 0-1.693.267-2.12.8-.426.507-.88 1.213-1.36 2.12l-1.44 2.8h-.4l.2-6.52h23.08l.16 6.52h-.4l-1.44-2.8c-.453-.907-.893-1.613-1.32-2.12-.426-.533-1.133-.8-2.12-.8h-3.4v22.8c0 1.093.547 1.76 1.64 2l1.64.4v.4h-12.6Zm19.318 0v-.4l.72-.28c.534-.213.894-.48 1.08-.8.214-.32.32-.747.32-1.28V14.36c0-.56-.106-1-.32-1.32-.186-.32-.546-.573-1.08-.76l-.72-.28v-.4h11.48c3.254 0 5.6.6 7.04 1.8 1.44 1.173 2.16 2.667 2.16 4.48 0 1.36-.533 2.6-1.6 3.72-1.04 1.093-2.84 1.867-5.4 2.32 2.934.32 5.08 1.093 6.44 2.32 1.36 1.2 2.04 2.667 2.04 4.4 0 .853-.186 1.72-.56 2.6-.373.853-1.013 1.64-1.92 2.36-.88.72-2.093 1.307-3.64 1.76-1.546.427-3.506.64-5.88.64h-10.16Zm8.04-14.12h1.72c1.787 0 3.067-.413 3.84-1.24.8-.827 1.2-2.267 1.2-4.32 0-2.133-.36-3.653-1.08-4.56-.72-.907-1.893-1.36-3.52-1.36h-2.16v11.48Zm0 13.32h2c2 0 3.48-.533 4.44-1.6.987-1.067 1.48-2.733 1.48-5 0-2.133-.466-3.653-1.4-4.56-.933-.907-2.466-1.36-4.6-1.36h-1.92V37.2Zm14.802.8v-.4l.92-.36c.454-.187.76-.427.92-.72.187-.32.28-.747.28-1.28V14.36c0-.533-.08-.947-.24-1.24-.133-.32-.453-.573-.96-.76l-.92-.36v-.4h19.16l.24 6.16h-.4l-1.72-3.76c-.24-.48-.493-.867-.76-1.16-.266-.293-.666-.44-1.2-.44h-7.2v11.56h4.28c.534 0 .934-.133 1.2-.4.294-.293.547-.68.76-1.16l.8-1.6h.4V28h-.4l-.8-1.68c-.24-.48-.493-.853-.76-1.12-.266-.293-.666-.44-1.2-.44h-4.28V37.2h8.08c.534 0 .947-.133 1.24-.4.294-.293.534-.693.72-1.2l1.64-3.76h.4l-.24 6.16h-19.96Zm21.788 0v-.4l.84-.32c.56-.213.907-.467 1.04-.76.16-.32.24-.747.24-1.28V14.36c0-.533-.08-.96-.24-1.28-.16-.32-.507-.573-1.04-.76l-.84-.32v-.4h10.2v.4l-.72.32c-.507.187-.853.453-1.04.8-.187.32-.28.747-.28 1.28v22.8h6.16c.987 0 1.707-.24 2.16-.72.48-.48.933-1.173 1.36-2.08l1.56-3.36h.4l-.36 6.96h-19.44Zm20.85 0v-.4l.84-.32c.56-.213.907-.467 1.04-.76.16-.32.24-.747.24-1.28V14.36c0-.533-.08-.96-.24-1.28-.16-.32-.507-.573-1.04-.76l-.84-.32v-.4h10.2v.4l-.72.32c-.507.187-.853.453-1.04.8-.187.32-.28.747-.28 1.28v22.8h6.16c.987 0 1.707-.24 2.16-.72.48-.48.933-1.173 1.36-2.08l1.56-3.36h.4l-.36 6.96h-19.44Zm20.642 0v-.4l1-.36c.533-.213.946-.467 1.24-.76.293-.32.533-.76.72-1.32l8.24-23.64h3.4l8.12 23.8c.213.587.453 1.04.72 1.36.266.293.68.547 1.24.76l.48.16v.4h-10.16v-.4l.6-.2c.56-.213.893-.507 1-.88.133-.4.12-.867-.04-1.4l-1.88-5.76h-8.88l-1.92 5.64c-.187.587-.254 1.053-.2 1.4.08.347.4.627.96.84l.88.36v.4h-5.52Zm6.08-9.44h8.36l-4.04-12.44-4.32 12.44Z"/></svg>